<?xml version="1.0" encoding="utf-8"?>
<svg version="1.1" id="Layer_1" x="0px" y="0px" width="100%" viewBox="231.216 232.255 1853.242 1150.446" enable-background="new 0 0 2360 1640" xmlns="http://www.w3.org/2000/svg">
  <defs/>
  <path fill="#000000" opacity="1.000000" stroke="none" d="&#10;M2361.000000,1108.000000 &#10;&#9;C2361.000000,1285.656982 2361.000000,1463.313843 2361.000000,1640.978027 &#10;&#9;C1574.386108,1640.985352 787.772339,1640.985352 1.079235,1640.985352 &#10;&#9;C1.079235,1094.416138 1.079235,547.832214 1.079235,1.124151 &#10;&#9;C787.666626,1.124151 1574.333374,1.124151 2361.000000,1.123274 &#10;&#9;C2361.000000,149.114334 2361.000000,297.106262 2360.561035,445.549133 &#10;&#9;C2348.567383,444.995575 2337.007812,444.045746 2325.460693,442.960083 &#10;&#9;C2320.771240,442.519165 2316.123535,441.612000 2311.431641,441.220459 &#10;&#9;C2304.466064,440.639221 2297.478027,440.327728 2290.499512,439.901398 &#10;&#9;C2297.736084,441.901367 2305.075684,442.894470 2312.395996,444.015625 &#10;&#9;C2320.072266,445.191254 2327.713135,446.602539 2335.399170,447.704132 &#10;&#9;C2343.915283,448.924774 2352.464844,449.911469 2361.000000,451.000000 &#10;&#9;C2361.000000,668.366028 2361.000000,885.732117 2360.557861,1103.549072 &#10;&#9;C2353.237061,1103.282104 2346.358154,1102.564209 2339.479492,1101.846313 &#10;&#9;C2339.424072,1102.171021 2339.368652,1102.495728 2339.313232,1102.820435 &#10;&#9;C2346.541992,1104.546997 2353.770996,1106.273560 2361.000000,1108.000000 &#10;M447.896362,115.999969 &#10;&#9;C481.720306,116.004562 515.544250,116.024307 549.368164,115.972038 &#10;&#9;C551.188354,115.969231 553.007690,115.361801 554.827393,115.035820 &#10;&#9;C554.739563,114.452278 554.651733,113.868729 554.563965,113.285179 &#10;&#9;C553.003113,113.191643 551.442261,113.016479 549.881409,113.016228 &#10;&#9;C453.182434,113.000832 356.483459,112.990936 259.784515,113.044365 &#10;&#9;C257.171478,113.045807 254.558868,113.745781 251.946060,114.120018 &#10;&#9;C251.983887,114.414848 252.021713,114.709679 252.059540,115.004509 &#10;&#9;C305.363068,115.004509 358.666626,115.004509 412.507996,115.665192 &#10;&#9;C423.990051,115.762543 435.472076,115.859894 447.896362,115.999969 &#10;M2093.032227,1331.150269 &#10;&#9;C2094.003906,1327.344360 2095.816650,1323.540161 2095.824219,1319.732178 &#10;&#9;C2096.022217,1221.856567 2096.037109,1123.980347 2096.030029,1026.104370 &#10;&#9;C2096.029785,1024.393066 2095.371582,1022.681824 2095.007324,1020.037048 &#10;&#9;C2095.338135,983.247742 2095.663086,946.458374 2096.002197,909.669128 &#10;&#9;C2096.327148,874.380798 2096.671143,839.092712 2096.998291,803.804382 &#10;&#9;C2097.337646,767.183472 2097.667236,730.562378 2098.000000,693.941406 &#10;&#9;C2098.334229,657.153259 2098.677002,620.365295 2098.997070,583.577026 &#10;&#9;C2099.343018,543.789551 2099.745361,504.002441 2099.982422,464.214386 &#10;&#9;C2100.380371,397.427246 2100.666504,330.639496 2101.000977,263.851990 &#10;&#9;C2101.006104,262.852234 2100.790527,261.776978 2101.079834,260.864349 &#10;&#9;C2104.596680,249.767715 2099.952393,241.485153 2091.903564,234.490997 &#10;&#9;C2089.845215,232.702286 2087.422852,230.587631 2084.923584,230.200958 &#10;&#9;C2079.056885,229.293320 2073.041504,229.032684 2067.087646,229.045151 &#10;&#9;C1936.151611,229.319366 1805.215698,229.891739 1674.279541,229.927704 &#10;&#9;C1572.327148,229.955704 1470.374512,229.284653 1368.421753,229.051498 &#10;&#9;C1352.800293,229.015762 1337.177124,229.969238 1321.555054,229.955276 &#10;&#9;C1016.109558,229.682144 710.664062,229.286697 405.218475,229.051117 &#10;&#9;C360.264191,229.016449 315.304932,229.400513 270.357391,230.153046 &#10;&#9;C255.809479,230.396606 241.134857,226.872253 226.616531,231.790894 &#10;&#9;C222.212128,233.283066 220.679596,235.364426 220.726151,239.448196 &#10;&#9;C220.746948,241.272659 220.974350,243.094986 220.989731,244.919296 &#10;&#9;C221.336258,286.039917 221.674149,327.160614 221.997421,368.281433 &#10;&#9;C222.340363,411.901886 222.659592,455.522552 223.001984,499.143005 &#10;&#9;C223.326004,540.421631 223.671951,581.700012 223.998550,622.978577 &#10;&#9;C224.338409,665.932495 224.660202,708.886536 225.001892,751.840454 &#10;&#9;C225.326355,792.627869 225.512070,833.417236 226.048920,874.201904 &#10;&#9;C226.468964,906.110901 227.236435,938.016479 228.063309,969.918030 &#10;&#9;C228.285889,978.505798 229.421844,987.066345 229.871063,995.653442 &#10;&#9;C230.069016,999.437195 229.665588,1003.260315 229.415314,1007.057678 &#10;&#9;C229.081635,1012.120300 228.076981,1017.205750 228.352753,1022.226807 &#10;&#9;C228.841156,1031.119385 230.632446,1039.954712 230.891785,1048.842773 &#10;&#9;C231.551559,1071.455200 231.655411,1094.083496 232.002228,1116.705322 &#10;&#9;C232.320923,1137.491333 232.663391,1158.277100 233.000763,1179.062988 &#10;&#9;C233.330032,1199.347290 233.679779,1219.631348 233.995575,1239.915894 &#10;&#9;C234.345139,1262.368042 235.032883,1284.823242 234.871719,1307.271973 &#10;&#9;C234.763489,1322.344238 236.380463,1337.454346 233.176712,1352.525391 &#10;&#9;C230.798035,1363.715210 237.229538,1372.926025 243.265686,1381.352295 &#10;&#9;C246.652649,1386.080322 252.640671,1388.884644 257.194092,1392.856812 &#10;&#9;C260.813904,1396.014526 264.745453,1397.141113 269.502838,1397.083862 &#10;&#9;C307.293121,1396.628540 345.084778,1396.158447 382.877167,1396.032959 &#10;&#9;C509.496643,1395.612427 636.116577,1395.333862 762.736389,1395.000000 &#10;&#9;C888.858948,1394.667236 1014.981445,1394.327271 1141.104004,1394.001709 &#10;&#9;C1273.059692,1393.661011 1405.015503,1393.310181 1536.971191,1393.013794 &#10;&#9;C1577.636353,1392.922485 1618.302002,1393.100464 1658.966797,1392.971069 &#10;&#9;C1739.424561,1392.715332 1819.882690,1392.450439 1900.339111,1391.941284 &#10;&#9;C1932.573364,1391.737427 1964.807983,1392.977661 1997.046631,1390.222168 &#10;&#9;C2020.658569,1388.203979 2044.475586,1388.576172 2068.082520,1386.521118 &#10;&#9;C2072.871582,1386.104126 2078.541504,1384.569458 2083.523682,1382.599609 &#10;&#9;C2084.396240,1382.254761 2085.403320,1381.482056 2085.734619,1380.659424 &#10;&#9;C2088.242676,1374.433960 2091.931641,1368.303345 2092.689453,1361.842529 &#10;&#9;C2093.845703,1351.982422 2092.942871,1341.880859 2093.032227,1331.150269 &#10;z"/>
  <path fill="#FFFFFF" opacity="1.000000" stroke="none" d="&#10;M2361.000000,450.583344 &#10;&#9;C2352.464844,449.911469 2343.915283,448.924774 2335.399170,447.704132 &#10;&#9;C2327.713135,446.602539 2320.072266,445.191254 2312.395996,444.015625 &#10;&#9;C2305.075684,442.894470 2297.736084,441.901367 2290.499512,439.901398 &#10;&#9;C2297.478027,440.327728 2304.466064,440.639221 2311.431641,441.220459 &#10;&#9;C2316.123535,441.612000 2320.771240,442.519165 2325.460693,442.960083 &#10;&#9;C2337.007812,444.045746 2348.567383,444.995575 2360.561035,446.000000 &#10;&#9;C2361.000000,447.388885 2361.000000,448.777802 2361.000000,450.583344 &#10;z"/>
  <path fill="#FFFFFF" opacity="1.000000" stroke="none" d="&#10;M2361.000000,1107.600098 &#10;&#9;C2353.770996,1106.273560 2346.541992,1104.546997 2339.313232,1102.820435 &#10;&#9;C2339.368652,1102.495728 2339.424072,1102.171021 2339.479492,1101.846313 &#10;&#9;C2346.358154,1102.564209 2353.237061,1103.282104 2360.557861,1104.000000 &#10;&#9;C2361.000000,1105.066650 2361.000000,1106.133423 2361.000000,1107.600098 &#10;z"/>
  <path fill="#19181C" opacity="1.000000" stroke="none" d="&#10;M2092.914551,1331.881836 &#10;&#9;C2092.942871,1341.880859 2093.845703,1351.982422 2092.689453,1361.842529 &#10;&#9;C2091.931641,1368.303345 2088.242676,1374.433960 2085.734619,1380.659424 &#10;&#9;C2085.403320,1381.482056 2084.396240,1382.254761 2083.523682,1382.599609 &#10;&#9;C2078.541504,1384.569458 2072.871582,1386.104126 2068.082520,1386.521118 &#10;&#9;C2044.475586,1388.576172 2020.658569,1388.203979 1997.046631,1390.222168 &#10;&#9;C1964.807983,1392.977661 1932.573364,1391.737427 1900.339111,1391.941284 &#10;&#9;C1819.882690,1392.450439 1739.424561,1392.715332 1658.966797,1392.971069 &#10;&#9;C1618.302002,1393.100464 1577.636353,1392.922485 1536.971191,1393.013794 &#10;&#9;C1405.015503,1393.310181 1273.059692,1393.661011 1141.104004,1394.001709 &#10;&#9;C1014.981445,1394.327271 888.858948,1394.667236 762.736389,1395.000000 &#10;&#9;C636.116577,1395.333862 509.496643,1395.612427 382.877167,1396.032959 &#10;&#9;C345.084778,1396.158447 307.293121,1396.628540 269.502838,1397.083862 &#10;&#9;C264.745453,1397.141113 260.813904,1396.014526 257.194092,1392.856812 &#10;&#9;C252.640671,1388.884644 246.652649,1386.080322 243.265686,1381.352295 &#10;&#9;C237.229538,1372.926025 230.798035,1363.715210 233.176712,1352.525391 &#10;&#9;C236.380463,1337.454346 234.763489,1322.344238 234.871719,1307.271973 &#10;&#9;C235.032883,1284.823242 234.345139,1262.368042 233.995575,1239.915894 &#10;&#9;C233.679779,1219.631348 233.330032,1199.347290 233.000763,1179.062988 &#10;&#9;C232.663391,1158.277100 232.320923,1137.491333 232.002228,1116.705322 &#10;&#9;C231.655411,1094.083496 231.551559,1071.455200 230.891785,1048.842773 &#10;&#9;C230.632446,1039.954712 228.841156,1031.119385 228.352753,1022.226807 &#10;&#9;C228.076981,1017.205750 229.081635,1012.120300 229.415314,1007.057678 &#10;&#9;C229.665588,1003.260315 230.069016,999.437195 229.871063,995.653442 &#10;&#9;C229.421844,987.066345 228.285889,978.505798 228.063309,969.918030 &#10;&#9;C227.236435,938.016479 226.468964,906.110901 226.048920,874.201904 &#10;&#9;C225.512070,833.417236 225.326355,792.627869 225.001892,751.840454 &#10;&#9;C224.660202,708.886536 224.338409,665.932495 223.998550,622.978577 &#10;&#9;C223.671951,581.700012 223.326004,540.421631 223.001984,499.143005 &#10;&#9;C222.659592,455.522552 222.340363,411.901886 221.997421,368.281433 &#10;&#9;C221.674149,327.160614 221.336258,286.039917 220.989731,244.919296 &#10;&#9;C220.974350,243.094986 220.746948,241.272659 220.726151,239.448196 &#10;&#9;C220.679596,235.364426 222.212128,233.283066 226.616531,231.790894 &#10;&#9;C241.134857,226.872253 255.809479,230.396606 270.357391,230.153046 &#10;&#9;C315.304932,229.400513 360.264191,229.016449 405.218475,229.051117 &#10;&#9;C710.664062,229.286697 1016.109558,229.682144 1321.555054,229.955276 &#10;&#9;C1337.177124,229.969238 1352.800293,229.015762 1368.421753,229.051498 &#10;&#9;C1470.374512,229.284653 1572.327148,229.955704 1674.279541,229.927704 &#10;&#9;C1805.215698,229.891739 1936.151611,229.319366 2067.087646,229.045151 &#10;&#9;C2073.041504,229.032684 2079.056885,229.293320 2084.923584,230.200958 &#10;&#9;C2087.422852,230.587631 2089.845215,232.702286 2091.903564,234.490997 &#10;&#9;C2099.952393,241.485153 2104.596680,249.767715 2101.079834,260.864349 &#10;&#9;C2100.790527,261.776978 2101.006104,262.852234 2101.000977,263.851990 &#10;&#9;C2100.666504,330.639496 2100.380371,397.427246 2099.982422,464.214386 &#10;&#9;C2099.745361,504.002441 2099.343018,543.789551 2098.997070,583.577026 &#10;&#9;C2098.677002,620.365295 2098.334229,657.153259 2098.000000,693.941406 &#10;&#9;C2097.667236,730.562378 2097.337646,767.183472 2096.998291,803.804382 &#10;&#9;C2096.671143,839.092712 2096.327148,874.380798 2096.002197,909.669128 &#10;&#9;C2095.663086,946.458374 2095.338135,983.247742 2094.994873,1020.951416 &#10;&#9;C2094.664551,1025.491577 2094.107422,1029.114746 2094.066406,1032.743652 &#10;&#9;C2093.670898,1067.661987 2093.354492,1102.581177 2093.031494,1137.500244 &#10;&#9;C2092.688477,1174.583984 2092.275879,1211.667603 2092.059082,1248.752075 &#10;&#9;C2091.906006,1274.889404 2092.013916,1301.028442 2092.067139,1327.166504 &#10;&#9;C2092.070312,1328.738892 2092.619385,1330.310059 2092.914551,1331.881836 &#10;M2041.000000,311.503601 &#10;&#9;C2040.998535,307.510040 2040.906128,303.513733 2041.028564,299.523956 &#10;&#9;C2041.106812,296.972656 2040.154907,296.013458 2037.551147,295.961243 &#10;&#9;C2026.509033,295.739899 2015.470825,295.077972 2004.430298,295.055725 &#10;&#9;C1811.306152,294.666656 1618.181885,294.348419 1425.057617,294.014221 &#10;&#9;C1232.766602,293.681488 1040.475830,293.227386 848.184631,293.050049 &#10;&#9;C666.354065,292.882324 484.523163,292.994965 302.692413,293.043060 &#10;&#9;C296.527496,293.044678 290.275879,293.157837 284.220886,294.161438 &#10;&#9;C277.320526,295.305176 273.467377,294.735046 273.992767,305.397949 &#10;&#9;C274.360229,312.855652 274.793304,320.313660 274.963013,327.776886 &#10;&#9;C275.378998,346.067749 275.659088,364.361694 275.994629,382.654419 &#10;&#9;C276.327118,400.780396 276.661346,418.906372 276.993347,437.032349 &#10;&#9;C277.328400,455.325104 277.656128,473.617950 277.997406,491.910583 &#10;&#9;C278.320099,509.203461 278.669373,526.495850 278.982941,543.788879 &#10;&#9;C279.335815,563.247925 279.648743,582.707703 280.003387,602.166687 &#10;&#9;C280.315491,619.292969 280.668488,636.418518 280.989929,653.544678 &#10;&#9;C281.333282,671.837341 281.656219,690.130371 281.996613,708.423157 &#10;&#9;C282.321472,725.882568 282.664062,743.341736 282.986359,760.801270 &#10;&#9;C283.330170,779.427185 283.654449,798.053406 283.996216,816.679443 &#10;&#9;C284.322693,834.472412 284.663666,852.265015 284.992676,870.057922 &#10;&#9;C285.330994,888.350586 285.661224,906.643311 285.997406,924.936035 &#10;&#9;C286.327454,942.895386 286.659912,960.854675 286.992462,978.814026 &#10;&#9;C287.325043,996.773499 287.658264,1014.733032 287.992676,1032.692505 &#10;&#9;C288.324005,1050.485229 288.661926,1068.277954 288.988281,1086.070801 &#10;&#9;C289.329956,1104.696777 289.657898,1123.323242 289.998138,1141.949219 &#10;&#9;C290.326172,1159.908569 290.675568,1177.867310 290.991119,1195.826904 &#10;&#9;C291.341827,1215.786011 291.793701,1235.744507 291.963501,1255.705444 &#10;&#9;C292.130798,1275.370361 291.899567,1295.038696 292.075287,1314.703613 &#10;&#9;C292.116058,1319.263672 292.595886,1324.750000 297.233887,1326.663696 &#10;&#9;C302.138550,1328.687744 307.824738,1329.605347 313.169586,1329.605347 &#10;&#9;C323.257538,1329.605347 333.343933,1328.119995 343.433685,1328.087402 &#10;&#9;C480.058502,1327.647339 616.685181,1327.628784 753.308533,1326.936157 &#10;&#9;C876.221741,1326.313110 999.150635,1329.060181 1122.052124,1325.125366 &#10;&#9;C1139.812622,1324.556885 1157.626221,1325.925903 1175.416382,1325.970459 &#10;&#9;C1333.207397,1326.364746 1490.998901,1326.606445 1648.789917,1327.018311 &#10;&#9;C1706.583008,1327.169067 1764.374756,1327.773682 1822.167847,1327.954712 &#10;&#9;C1875.999878,1328.123169 1929.832886,1327.983276 1983.665405,1328.046021 &#10;&#9;C1988.455200,1328.051636 1993.242065,1328.701294 1998.034790,1328.783813 &#10;&#9;C2005.286865,1328.908936 2012.564819,1329.133301 2019.789429,1328.664062 &#10;&#9;C2024.219238,1328.376465 2030.574219,1328.311035 2032.520020,1325.600830 &#10;&#9;C2036.069458,1320.657227 2038.703125,1313.834351 2038.743896,1307.775391 &#10;&#9;C2039.430542,1205.985474 2039.705200,1104.192505 2039.963989,1002.399963 &#10;&#9;C2040.089966,952.901001 2039.994995,903.401428 2040.000000,853.902161 &#10;&#9;C2040.000122,852.124695 2040.000000,850.347168 2040.000000,848.484070 &#10;&#9;C2036.444702,847.920044 2033.510132,847.528381 2030.604858,846.981506 &#10;&#9;C2013.214355,843.707825 1998.041260,837.517090 1987.407471,821.709778 &#10;&#9;C1980.972656,812.144409 1979.241821,802.765869 1981.254028,792.227173 &#10;&#9;C1982.167969,787.440735 1983.545044,782.223572 1986.357300,778.417419 &#10;&#9;C1994.378174,767.561646 2005.575439,760.594788 2018.497803,757.122803 &#10;&#9;C2025.240234,755.311340 2032.484375,755.367249 2039.880005,754.537292 &#10;&#9;C2040.253784,607.003418 2040.626953,459.752686 2041.000000,311.503601 &#10;z"/>
  <path fill="#313034" opacity="1.000000" stroke="none" d="&#10;M2092.973389,1331.516113 &#10;&#9;C2092.619385,1330.310059 2092.070312,1328.738892 2092.067139,1327.166504 &#10;&#9;C2092.013916,1301.028442 2091.906006,1274.889404 2092.059082,1248.752075 &#10;&#9;C2092.275879,1211.667603 2092.688477,1174.583984 2093.031494,1137.500244 &#10;&#9;C2093.354492,1102.581177 2093.670898,1067.661987 2094.066406,1032.743652 &#10;&#9;C2094.107422,1029.114746 2094.664551,1025.491577 2095.001465,1021.418152 &#10;&#9;C2095.371582,1022.681824 2096.029785,1024.393066 2096.030029,1026.104370 &#10;&#9;C2096.037109,1123.980347 2096.022217,1221.856567 2095.824219,1319.732178 &#10;&#9;C2095.816650,1323.540161 2094.003906,1327.344360 2092.973389,1331.516113 &#10;z"/>
  <path fill="#232323" opacity="1.000000" stroke="none" d="&#10;M411.970154,115.004509 &#10;&#9;C358.666626,115.004509 305.363068,115.004509 252.059540,115.004509 &#10;&#9;C252.021713,114.709679 251.983887,114.414848 251.946060,114.120018 &#10;&#9;C254.558868,113.745781 257.171478,113.045807 259.784515,113.044365 &#10;&#9;C356.483459,112.990936 453.182434,113.000832 549.881409,113.016228 &#10;&#9;C551.442261,113.016479 553.003113,113.191643 554.563965,113.285179 &#10;&#9;C554.651733,113.868729 554.739563,114.452278 554.827393,115.035820 &#10;&#9;C553.007690,115.361801 551.188354,115.969231 549.368164,115.972038 &#10;&#9;C515.544250,116.024307 481.720306,116.004562 447.136169,115.685783 &#10;&#9;C434.907379,115.249237 423.438751,115.126869 411.970154,115.004509 &#10;z"/>
  <path fill="#313034" opacity="1.000000" stroke="none" d="&#10;M412.239075,115.334854 &#10;&#9;C423.438751,115.126869 434.907379,115.249237 446.665039,115.664421 &#10;&#9;C435.472076,115.859894 423.990051,115.762543 412.239075,115.334854 &#10;z"/>
  <path fill="#313034" opacity="1.000000" stroke="none" d="&#10;M2041.000000,312.002777 &#10;&#9;C2040.626953,459.752686 2040.253784,607.003418 2039.880005,754.537292 &#10;&#9;C2032.484375,755.367249 2025.240234,755.311340 2018.497803,757.122803 &#10;&#9;C2005.575439,760.594788 1994.378174,767.561646 1986.357300,778.417419 &#10;&#9;C1983.545044,782.223572 1982.167969,787.440735 1981.254028,792.227173 &#10;&#9;C1979.241821,802.765869 1980.972656,812.144409 1987.407471,821.709778 &#10;&#9;C1998.041260,837.517090 2013.214355,843.707825 2030.604858,846.981506 &#10;&#9;C2033.510132,847.528381 2036.444702,847.920044 2040.000000,848.484070 &#10;&#9;C2040.000000,850.347168 2040.000122,852.124695 2040.000000,853.902161 &#10;&#9;C2039.994995,903.401428 2040.089966,952.901001 2039.963989,1002.399963 &#10;&#9;C2039.705200,1104.192505 2039.430542,1205.985474 2038.743896,1307.775391 &#10;&#9;C2038.703125,1313.834351 2036.069458,1320.657227 2032.520020,1325.600830 &#10;&#9;C2030.574219,1328.311035 2024.219238,1328.376465 2019.789429,1328.664062 &#10;&#9;C2012.564819,1329.133301 2005.286865,1328.908936 1998.034790,1328.783813 &#10;&#9;C1993.242065,1328.701294 1988.455200,1328.051636 1983.665405,1328.046021 &#10;&#9;C1929.832886,1327.983276 1875.999878,1328.123169 1822.167847,1327.954712 &#10;&#9;C1764.374756,1327.773682 1706.583008,1327.169067 1648.789917,1327.018311 &#10;&#9;C1490.998901,1326.606445 1333.207397,1326.364746 1175.416382,1325.970459 &#10;&#9;C1157.626221,1325.925903 1139.812622,1324.556885 1122.052124,1325.125366 &#10;&#9;C999.150635,1329.060181 876.221741,1326.313110 753.308533,1326.936157 &#10;&#9;C616.685181,1327.628784 480.058502,1327.647339 343.433685,1328.087402 &#10;&#9;C333.343933,1328.119995 323.257538,1329.605347 313.169586,1329.605347 &#10;&#9;C307.824738,1329.605347 302.138550,1328.687744 297.233887,1326.663696 &#10;&#9;C292.595886,1324.750000 292.116058,1319.263672 292.075287,1314.703613 &#10;&#9;C291.899567,1295.038696 292.130798,1275.370361 291.963501,1255.705444 &#10;&#9;C291.793701,1235.744507 291.341827,1215.786011 290.991119,1195.826904 &#10;&#9;C290.675568,1177.867310 290.326172,1159.908569 289.998138,1141.949219 &#10;&#9;C289.657898,1123.323242 289.329956,1104.696777 288.988281,1086.070801 &#10;&#9;C288.661926,1068.277954 288.324005,1050.485229 287.992676,1032.692505 &#10;&#9;C287.658264,1014.733032 287.325043,996.773499 286.992462,978.814026 &#10;&#9;C286.659912,960.854675 286.327454,942.895386 285.997406,924.936035 &#10;&#9;C285.661224,906.643311 285.330994,888.350586 284.992676,870.057922 &#10;&#9;C284.663666,852.265015 284.322693,834.472412 283.996216,816.679443 &#10;&#9;C283.654449,798.053406 283.330170,779.427185 282.986359,760.801270 &#10;&#9;C282.664062,743.341736 282.321472,725.882568 281.996613,708.423157 &#10;&#9;C281.656219,690.130371 281.333282,671.837341 280.989929,653.544678 &#10;&#9;C280.668488,636.418518 280.315491,619.292969 280.003387,602.166687 &#10;&#9;C279.648743,582.707703 279.335815,563.247925 278.982941,543.788879 &#10;&#9;C278.669373,526.495850 278.320099,509.203461 277.997406,491.910583 &#10;&#9;C277.656128,473.617950 277.328400,455.325104 276.993347,437.032349 &#10;&#9;C276.661346,418.906372 276.327118,400.780396 275.994629,382.654419 &#10;&#9;C275.659088,364.361694 275.378998,346.067749 274.963013,327.776886 &#10;&#9;C274.793304,320.313660 274.360229,312.855652 273.992767,305.397949 &#10;&#9;C273.467377,294.735046 277.320526,295.305176 284.220886,294.161438 &#10;&#9;C290.275879,293.157837 296.527496,293.044678 302.692413,293.043060 &#10;&#9;C484.523163,292.994965 666.354065,292.882324 848.184631,293.050049 &#10;&#9;C1040.475830,293.227386 1232.766602,293.681488 1425.057617,294.014221 &#10;&#9;C1618.181885,294.348419 1811.306152,294.666656 2004.430298,295.055725 &#10;&#9;C2015.470825,295.077972 2026.509033,295.739899 2037.551147,295.961243 &#10;&#9;C2040.154907,296.013458 2041.106812,296.972656 2041.028564,299.523956 &#10;&#9;C2040.906128,303.513733 2040.998535,307.510040 2041.000000,312.002777 &#10;z"/>
</svg>