<?xml version="1.0" encoding="UTF-8"?>
<svg version="1.1" xmlns="http://www.w3.org/2000/svg" width="1889" height="1158">
<path d="M0 0 C623.37 0 1246.74 0 1889 0 C1889 382.14 1889 764.28 1889 1158 C1265.63 1158 642.26 1158 0 1158 C0 775.86 0 393.72 0 0 Z " fill="#302F34" transform="translate(0,0)"/>
<path d="M0 0 C623.37 0 1246.74 0 1889 0 C1889 382.14 1889 764.28 1889 1158 C1265.63 1158 642.26 1158 0 1158 C0 775.86 0 393.72 0 0 Z M73 74 C71.66660808 74.0166674 70.33186084 74.00351896 69 73.9375 C64.954412 73.89018318 61.78234184 74.53337765 58 76 C56.96335181 79.10994456 56.87735279 81.2447828 56.88310051 84.50510979 C56.88343855 85.63695391 56.88377659 86.76879803 56.88412488 87.93494046 C56.8904493 89.16940785 56.89677372 90.40387524 56.90328979 91.67575073 C56.90695081 92.97064828 56.91061182 94.26554582 56.91438377 95.59968269 C56.96612444 109.72240562 57.2252371 123.84204366 57.50381111 137.96178173 C57.5797438 141.84314623 57.65236758 145.72457307 57.72543812 149.60599232 C57.85311529 156.36561223 57.98275764 163.12519206 58.11375237 169.88474846 C58.30769324 179.89398256 58.49826584 189.90327888 58.6880958 199.91259169 C59.00641142 216.69382954 59.32697402 233.47502369 59.64877319 250.25619507 C60.39702565 289.28170776 61.13563541 328.30740396 61.87443851 367.33309649 C61.99757103 373.83693484 62.12078668 380.34077162 62.24407193 386.84460708 C63.40551892 448.11604757 64.54854083 509.38779068 65.66015625 570.66015625 C65.68452558 572.00334372 65.68452558 572.00334372 65.70938721 573.37366629 C66.18846473 599.78288842 66.66508576 626.19215474 67.14090341 652.60143578 C67.21863499 656.91546097 67.29639228 661.2294857 67.37414932 665.54351044 C67.49783924 672.40601461 67.62152158 679.26851892 67.74519444 686.13102341 C67.86718598 692.90021141 67.98918091 699.66939936 68.11118221 706.43858719 C68.12613764 707.26838382 68.14109306 708.09818044 68.15650168 708.95312242 C68.23155305 713.11727638 68.3066082 717.28143028 68.3816697 721.44558406 C68.41146011 723.09826453 68.44125045 724.75094501 68.47104073 726.40362549 C68.48573378 727.21875121 68.50042683 728.03387693 68.51556513 728.87370344 C68.60378918 733.76833106 68.69197954 738.6629593 68.78014438 743.557588 C69.55996022 786.84988838 70.34937102 830.14199642 71.15384746 873.43384576 C71.22607217 877.32126481 71.29823601 881.20868499 71.37037849 885.09610558 C71.78474065 907.42349307 72.19925379 929.75087728 72.619268 952.07815927 C72.77263491 960.23405169 72.92483579 968.38996539 73.07628006 976.54589373 C73.16496664 981.31755013 73.25433157 986.08919166 73.34538078 990.8608036 C73.69972766 1009.44083461 74.02128729 1028.01951444 74.19543087 1046.60221243 C74.21987783 1049.16583065 74.24607979 1051.72942444 74.27294827 1054.29301834 C74.29022054 1055.95024868 74.30748877 1057.60747905 74.32475281 1059.26470947 C74.33319574 1060.06976213 74.34163867 1060.87481478 74.35033745 1061.70426297 C74.39766684 1066.35525488 74.43143606 1071.0060837 74.45408297 1075.65725803 C74.46655497 1077.78977062 74.48552113 1079.92210705 74.5073719 1082.05454254 C74.53329651 1084.61493279 74.5485652 1087.1754642 74.55070305 1089.7359848 C74.62930654 1095.87937269 74.84307414 1100.64769196 78 1106 C84.81014008 1110.34689792 93.46372334 1110.45741508 101.30767155 1109.51044464 C108.01081497 1108.82165128 114.70110714 1108.84959124 121.432724 1108.84851074 C122.88479212 1108.84465342 124.33685916 1108.84036585 125.78892487 1108.83568954 C129.77085094 1108.82410043 133.75276561 1108.81857875 137.73470512 1108.81405675 C142.06292874 1108.8080538 146.39113752 1108.79634478 150.71935081 1108.78534698 C158.28706645 1108.76688965 165.85478245 1108.75201711 173.42251015 1108.73950195 C184.62325665 1108.72094788 195.82398576 1108.69672117 207.02471834 1108.67121875 C225.75233245 1108.62870101 244.47995286 1108.59042727 263.20758057 1108.55444336 C289.8043486 1108.5032562 316.40109823 1108.44496416 342.99784744 1108.38486063 C352.38175651 1108.36366975 361.76566589 1108.34261405 371.14957523 1108.32154256 C373.50827536 1108.31624505 375.86697547 1108.31094449 378.22567558 1108.30564088 C396.10566927 1108.26544541 413.98566475 1108.22613075 431.86566162 1108.18737793 C514.70691428 1108.00772108 597.54813019 1107.81639506 680.38927364 1107.59148407 C684.22697382 1107.58107744 688.06467403 1107.57068416 691.90237427 1107.56030273 C692.8453958 1107.55775036 693.78841734 1107.55519798 694.76001529 1107.55256826 C709.86006956 1107.5117954 724.9601305 1107.47461747 740.06019763 1107.43895614 C755.15930957 1107.4032421 770.25840982 1107.36420231 785.35750407 1107.3216486 C794.24048585 1107.29671157 803.12346521 1107.27427821 812.00646243 1107.2556105 C817.92393361 1107.24291132 823.84138907 1107.22674488 829.75884375 1107.20786855 C833.10951392 1107.19727346 836.46015692 1107.18858465 839.81084144 1107.18311405 C851.93523095 1107.16252891 864.03011929 1107.06229764 876.14241028 1106.49264526 C888.69743585 1105.90348023 901.2265405 1105.88575451 913.79321289 1105.92822266 C916.4102613 1105.93304847 919.02730697 1105.93742898 921.64435673 1105.94123268 C927.51018337 1105.95047189 933.3759942 1105.96328521 939.24180984 1105.97785187 C949.72946433 1106.00346663 960.21712662 1106.01638955 970.70480347 1106.0289917 C996.57274704 1106.06094635 1022.44066904 1106.10396538 1048.30859375 1106.1484375 C1049.49254833 1106.15046715 1050.6765029 1106.1524968 1051.89633489 1106.15458795 C1090.04689451 1106.22001724 1128.1974446 1106.2902729 1166.34799024 1106.36335605 C1171.08194053 1106.37241965 1175.81589094 1106.38142135 1180.5498414 1106.39039373 C1248.11231731 1106.51850233 1315.67479287 1106.65588489 1735.61301058 1108.70574138 C1739.86995458 1108.734728 1744.1269016 1108.7632701 1748.38384858 1108.79181516 C1752.8137548 1108.82160227 1757.24365022 1108.85274031 1761.67354488 1108.88419151 C1767.29764187 1108.92356809 1772.921737 1108.95235748 1778.54590869 1108.97853017 C1782.27197841 1109.00169055 1785.99771861 1109.04114264 1789.72364998 1109.08053398 C1792.26665611 1109.09921759 1794.8096649 1109.11754381 1797.35267639 1109.13548279 C1798.53150939 1109.15161088 1799.7103424 1109.16773897 1800.92489761 1109.1843558 C1808.73203702 1109.40634053 1808.73203702 1109.40634053 1816 1107 C1824.5416745 1096.15881971 1822.84298348 1080.82603455 1822.77294922 1067.88964844 C1822.78113545 1065.34557889 1822.79194533 1062.80151666 1822.80515194 1060.25746822 C1822.82770746 1054.76804535 1822.83198303 1049.27909447 1822.8195591 1043.78964806 C1822.80134934 1035.71584541 1822.81712357 1027.64236413 1822.84007476 1019.56858634 C1822.87716963 1006.18381205 1822.88693582 992.79915568 1822.88015747 979.41433716 C1822.87357932 966.32077193 1822.8792016 953.22730804 1822.90133667 940.13375854 C1822.90269838 939.32370112 1822.9040601 938.51364369 1822.90546308 937.67903907 C1822.91240542 933.58486202 1822.91955919 929.49068536 1822.92679036 925.39650881 C1822.98347746 893.02750986 1822.99862527 860.65858191 1822.99859244 828.28954011 C1822.99859326 827.52928914 1822.99859409 826.76903816 1822.99859495 825.98574928 C1822.99859577 824.4628655 1822.99859081 822.93998173 1822.99857997 821.41709795 C1822.9985894 805.94423656 1823.00822968 790.47139155 1823.02099609 774.99853516 C1823.02292809 772.60365105 1823.02485584 770.20876694 1823.02677917 767.81388283 C1823.02957477 764.33941431 1823.03237069 760.8649458 1823.03518724 757.3904773 C1823.06971778 714.2602662 1823.06090151 671.13018222 1823 628 C1822.42883453 627.88831985 1821.85766907 627.77663971 1821.26919556 627.66157532 C1818.65031377 627.14801092 1816.03219037 626.63067482 1813.4140625 626.11328125 C1812.5156665 625.93768677 1811.61727051 625.76209229 1810.69165039 625.58117676 C1799.22969905 623.30922618 1790.25623358 620.31515166 1781 613 C1780.17628906 612.39542969 1779.35257813 611.79085937 1778.50390625 611.16796875 C1771.95930303 605.50142462 1765.01698203 595.80492337 1764 587 C1763.85842632 575.65051018 1764.62677423 564.02939512 1772.09375 554.93359375 C1784.19662353 542.65711343 1798.29119285 537.2746925 1815 536 C1816.41323319 535.83536115 1817.82555132 535.66266781 1819.23681641 535.48193359 C1820.47866699 535.32289551 1821.72051758 535.16385742 1823 535 C1823.18128333 506.50008218 1823.3457953 478.00007684 1823.5 449.5 C1823.50594854 448.40362827 1823.51189708 447.30725654 1823.51802588 446.17766142 C1823.97384022 361.94750852 1824.08866308 277.71943891 1824.06315851 193.48831606 C1824.06249783 191.3053147 1824.06185516 189.12231334 1824.06121445 186.93931198 C1824.05063483 151.29025212 1824.03197148 115.64119884 1824.00321975 79.99214867 C1824.00162598 78.01603508 1824.00162598 78.01603508 1824 76 C1811.7923512 75.20703612 1799.64739446 74.84945241 1787.41569996 74.84571743 C1785.60578046 74.84154991 1783.79586189 74.83695878 1781.98594442 74.83198836 C1777.04061883 74.81962245 1772.09530133 74.81322414 1767.14996386 74.80785539 C1761.74933853 74.80091465 1756.34872573 74.78832581 1750.94810933 74.77647978 C1741.47664245 74.75648067 1732.00517465 74.74007587 1722.53369713 74.7260437 C1708.41930314 74.7051222 1694.30492334 74.6786404 1680.19054092 74.65109418 C1656.29749285 74.60464331 1632.40443866 74.56286906 1608.51137733 74.5238781 C1584.48103814 74.48466146 1560.45070275 74.44380845 1536.4203701 74.40075874 C1534.89410636 74.39802714 1533.36784261 74.39529587 1531.84157886 74.39256494 C1525.6979482 74.38157078 1519.55431756 74.37056942 1513.41068693 74.35955721 C1496.19499895 74.32870623 1478.97931038 74.29819318 1461.76362133 74.26794529 C1460.97844533 74.2665657 1460.19326933 74.2651861 1459.38430012 74.26376471 C1434.28898229 74.21969612 1409.19366214 74.17712749 1384.09834003 74.13556576 C1382.87610363 74.13354121 1382.87610363 74.13354121 1381.62917558 74.13147575 C1368.4136575 74.10958923 1355.1981393 74.0877755 1341.98262109 74.06596788 C1292.61044427 73.98449154 1243.238277 73.89890326 1193.86611622 73.80822243 C1179.72648994 73.78225308 1165.58686352 73.7563656 1151.44723701 73.73052025 C1150.67091154 73.72910119 1149.89458606 73.72768214 1149.09473556 73.72622008 C1071.02713007 73.58355836 992.95951028 73.44821087 361.25055392 72.88229513 C344.32515624 72.88075884 327.399759 72.87872199 310.47436166 72.87495875 C309.68084723 72.87478315 308.8873328 72.87460755 308.06977248 72.87442663 C304.87502712 72.87371868 301.68028176 72.87300736 298.4855364 72.8722942 C269.00522682 72.86572519 239.52492078 72.86272856 210.0446106 72.86692412 C207.22939729 72.86731587 204.41418397 72.86769962 201.59897065 72.86807895 C200.90819723 72.86817475 200.21742381 72.86827055 199.50571786 72.86836926 C189.22268737 72.86973156 178.93965949 72.86848419 168.65662932 72.865762 C157.22712662 72.86273753 145.79763014 72.86318957 134.368128 72.86825868 C128.61420116 72.87072406 122.86028588 72.8716134 117.10635928 72.86816823 C111.88136841 72.86508318 106.65640006 72.86657154 101.43141108 72.87179842 C99.54850793 72.87287441 97.6656029 72.87225994 95.78270106 72.86979354 C93.23394985 72.86670122 90.68527689 72.86974043 88.13652962 72.87433344 C87.40687042 72.8719744 86.67721122 72.86961536 85.92544114 72.86718483 C81.53065268 72.88317766 77.33760114 73.3152116 73 74 Z " fill="#18171C" transform="translate(0,0)"/>
</svg>
