<?xml version="1.0" encoding="UTF-8"?>
<svg id="Layer_2" data-name="Layer 2" xmlns="http://www.w3.org/2000/svg" viewBox="0 0 103.98 287.54">
  <defs>
    <style>
      .cls-1 {
        fill: #fff;
      }

      .cls-2 {
        fill: #b6b6b7;
      }
    </style>
  </defs>
  <g id="Layer_1-2" data-name="Layer 1">
    <path class="cls-1" d="M49.49,2.41v114.38c0,3.22,5,3.22,5,0V2.41c0-3.22-5-3.22-5,0h0Z"/>
    <g>
      <path class="cls-2" d="M29.91,159.58c-6.92-9.53-7.65-23.76-.09-32.79,1.81-2.17,4.02-3.99,6.42-5.47,6.23-3.84,13.88-5.39,21.08-4.06s13.85,5.58,17.93,11.66c6.63,9.89,5.44,24.3-2.72,32.97"/>
      <path class="cls-1" d="M32.07,158.32c-4.09-5.71-6.06-13.08-4.79-20.05.62-3.39,1.91-6.66,4.05-9.39,2.51-3.21,6.02-5.64,9.72-7.26,7.28-3.2,15.92-3.13,22.99.6,6.48,3.42,11.12,9.32,12.56,16.53s-.61,15.77-5.83,21.39c-2.19,2.36,1.34,5.9,3.54,3.54,5.63-6.07,8.39-14.55,7.61-22.78-.83-8.79-5.39-16.45-12.71-21.41-7.78-5.27-17.8-6.49-26.72-3.7s-16.4,9.09-19.25,18.03-.94,19.41,4.52,27.04c.79,1.1,2.18,1.62,3.42.9,1.08-.63,1.69-2.32.9-3.42h0Z"/>
    </g>
    <g>
      <path class="cls-2" d="M69.3,162.83c-3.76.6-7.55-.59-11.24-1.54-6.64-1.7-13.49-2.63-20.35-2.75-3.8-.07-7.99.27-10.69,2.94-.67.66-1.24,1.56-1.05,2.48.14.7.7,1.24,1.26,1.7,6.41,5.28,15.4,5.78,23.71,5.67,4.1-.05,8.21-.2,12.31-.43,5.25-.3,10.63-.79,15.33-3.14-1.62-2.88-4.9-4.75-8.21-4.67"/>
      <path class="cls-1" d="M68.64,160.42c-3.72.52-7.52-.97-11.08-1.83-3.78-.92-7.63-1.57-11.5-2.01-3.64-.41-7.39-.72-11.05-.51-3.31.19-6.61.95-9.2,3.12-1.29,1.08-2.37,2.61-2.38,4.36-.01,2.16,1.56,3.54,3.15,4.73,2.55,1.92,5.56,3.22,8.63,4.05,6.53,1.76,13.46,1.57,20.16,1.38,8.17-.24,16.97-.16,24.47-3.82,1.21-.59,1.54-2.33.9-3.42-2.17-3.66-6.11-5.91-10.37-5.9-3.22,0-3.22,5.01,0,5,2.51,0,4.77,1.27,6.05,3.43l.9-3.42c-5.66,2.76-12.34,2.76-18.5,3.02s-12.36.63-18.41-.28c-2.73-.41-5.51-1.08-8-2.31-1.08-.54-2.15-1.16-3.11-1.89-.28-.22-.85-1.04-.87-.57-.01.29.25-.2.36-.32.19-.21.42-.39.65-.56,2.12-1.53,4.99-1.66,7.51-1.65,3.28,0,6.57.24,9.83.64,3.74.45,7.44,1.21,11.08,2.15,4.03,1.05,7.92,2.01,12.11,1.42,1.34-.19,2.07-1.89,1.75-3.08-.4-1.44-1.73-1.94-3.08-1.75h0Z"/>
    </g>
    <path class="cls-1" d="M29.01,170.67c-.83,4.85-3.39,8.99-6.24,12.92-3.04,4.19-6.23,8.24-8.93,12.66-5.69,9.3-10.05,19.67-12.28,30.36s-2.35,21.62,1.36,31.75c3.19,8.7,8.92,16.59,16.95,21.39,4.64,2.77,9.9,4.31,15.16,5.42,5.68,1.2,11.49,2.21,17.31,2.36,9.55.25,18.95-2.43,27.02-7.53s14.3-11.89,18.5-20.08c4.67-9.11,6.66-19.52,6.01-29.72-.64-9.97-3.5-20.71-9.58-28.79-1.58-2.1-3.34-3.96-5.36-5.63s-4.07-3.16-5.77-5.1c-2.93-3.32-4.11-7.89-4.56-12.2-.25-2.37-.32-4.75-.34-7.13-.03-3.22-5.03-3.22-5,0,.04,4.67.27,9.45,1.58,13.96,1.4,4.79,4.07,8.65,7.89,11.82,1.86,1.55,3.81,3,5.48,4.75s2.99,3.65,4.16,5.71c2.36,4.13,3.97,8.67,5.08,13.28,2.24,9.38,2.06,19.33-.73,28.57-2.58,8.55-7.52,16.16-14.24,22.03s-14.32,9.39-22.71,10.67c-5.11.78-10.4.42-15.49-.35s-10.48-1.76-15.48-3.45c-8.49-2.87-15.02-8.98-19.11-16.89-4.51-8.73-5.45-18.82-4.19-28.46,1.33-10.19,4.95-20.16,9.78-29.19,2.43-4.55,5.23-8.89,8.32-13.02,2.88-3.85,5.95-7.65,8.01-12.02,1.02-2.16,1.81-4.4,2.22-6.76.23-1.33-.35-2.69-1.75-3.08-1.2-.33-2.85.41-3.08,1.75h0Z"/>
    <path class="cls-1" d="M41.59,173.52c2.04,17.13-.82,34.76-8.31,50.31-2.13,4.42-4.62,8.66-7.43,12.69-1.18,1.69.82,4.51,2.82,3.67,5.44-2.27,10.87-4.53,16.31-6.8.29-.12.57-.25.86-.36.39-.15.74-.06.16-.33-.69-.33-.21-.02-.1.25s.34.56.5.83c.75,1.24,1.51,2.48,2.26,3.72,1.51,2.48,3.01,4.96,4.52,7.44,1.01,1.67,3.28,1.56,4.32,0,1.58-2.37,3.23-4.99,5.77-6.44,1.06-.61,2.32-.99,3.55-.92s2.14.75,3.17,1.43c1.19.78,2.58,1.55,4.06,1.49,1.81-.07,3.24-1.31,3.83-2.98,1.02-2.9.68-6.44-.03-9.37-1.51-6.22-5.36-11.54-8.29-17.13s-5.09-11.75-6.39-18.01c-1.48-7.12-1.77-14.46-.99-21.69.14-1.34-1.25-2.5-2.5-2.5-1.47,0-2.35,1.15-2.5,2.5-1.39,12.89.76,26,5.97,37.86,2.51,5.71,6.24,10.81,8.64,16.56,1.08,2.58,1.81,5.32,1.67,8.13-.01.28-.37,1.87-.29,1.97.09.11.27-.14.49-.28.55-.36.61.29.13-.1-1.01-.79-2.33-1.56-3.5-2.08-3.18-1.41-6.97-.79-9.87,1.01-3.12,1.94-5.23,5.03-7.23,8.03h4.32c-1.67-2.75-3.35-5.51-5.02-8.26-1.54-2.53-3.12-6.73-6.74-6.25-1.51.2-2.99,1.04-4.39,1.63l-4.59,1.91c-3.14,1.31-6.28,2.62-9.42,3.92l2.82,3.67c10.29-14.75,16.16-32.46,16.99-50.41.23-5.05.04-10.1-.56-15.11-.16-1.34-1.03-2.5-2.5-2.5-1.23,0-2.66,1.15-2.5,2.5h0Z"/>
    <path class="cls-1" d="M38.68,129.87c-2.63,2.17-5.26,4.33-7.89,6.5-.43.35-.81.97-.19,1.36.56.36,1.57.2,2.07-.21,2.63-2.17,5.26-4.33,7.89-6.5.43-.35.81-.97.19-1.36-.56-.36-1.57-.2-2.07.21h0Z"/>
    <path class="cls-1" d="M41.05,137.78l-9.38,5.01c-.46.24-.8.9-.23,1.22.63.35,1.48.06,2.06-.25l9.38-5.01c.46-.24.8-.9.23-1.22-.63-.35-1.48-.06-2.06.25h0Z"/>
    <path class="cls-1" d="M44.05,142.02c-3.97,1.07-7.63,3.26-10.37,6.33-.42.47-.3,1.02.32,1.2s1.59-.04,2.05-.55c1.2-1.34,2.44-2.4,3.96-3.34.72-.45,1.27-.74,2.12-1.11.21-.09.42-.18.64-.27.1-.04.19-.07.29-.11.08-.03.33-.12.13-.05.44-.15.88-.28,1.32-.4.49-.13,1.4-.59,1.22-1.24s-1.2-.59-1.68-.46h0Z"/>
    <path class="cls-1" d="M42.21,148.65c-.32.77-.72,1.51-1.2,2.2-.05.08-.11.15-.16.23.2-.29,0,0-.05.06-.13.17-.26.33-.4.49-.28.33-.58.64-.9.93-.18.17-.32.49-.25.75s.35.45.59.52c.72.2,1.51-.05,2.05-.55,1.31-1.22,2.38-2.74,3.07-4.4.1-.25.14-.5-.04-.73s-.54-.34-.81-.36c-.38-.02-.79.04-1.14.21-.28.14-.63.34-.76.64h0Z"/>
    <path class="cls-1" d="M33.91,186.87c-2.48,1.04-4.82,2.44-6.9,4.16-.22.18-.48.4-.52.71-.04.26.1.52.33.65.58.33,1.55.22,2.07-.21.98-.81,2.01-1.54,3.09-2.2.13-.08.27-.16.4-.24.03-.02.25-.14.09-.05s.07-.04.09-.05c.27-.15.55-.3.83-.44.57-.29,1.16-.56,1.75-.81.45-.19,1.18-.85.72-1.37s-1.37-.39-1.95-.15h0Z"/>
    <path class="cls-1" d="M32.6,194.89l-12.45,9.75c-.45.35-.34.76.23.84.66.09,1.52-.14,2.05-.55l12.45-9.75c.45-.35.34-.76-.23-.84-.66-.09-1.52.14-2.05.55h0Z"/>
    <path class="cls-1" d="M27.9,205.75c-4.24,3.52-8.18,7.4-11.76,11.6-.44.51.38.71.75.7.65,0,1.49-.24,1.92-.75,3.46-4.06,7.26-7.82,11.37-11.23.44-.37.34-.78-.23-.87-.65-.1-1.54.12-2.05.55h0Z"/>
    <path class="cls-1" d="M19.37,219c-4.51,6.53-8.2,13.58-10.98,21.02-.27.73,2.56.4,2.88-.44,2.73-7.3,6.34-14.24,10.77-20.66.64-.93-2.2-.57-2.66.09h0Z"/>
    <path class="cls-1" d="M18.73,233.38c-.21,3.83-.85,7.63-1.92,11.31-.2.68.87.88,1.31.84.67-.06,1.41-.42,1.61-1.11,1.07-3.69,1.72-7.48,1.92-11.31.08-1.4-2.86-.92-2.92.27h0Z"/>
    <path class="cls-1" d="M21.87,247.43c-.15,4.15-.29,8.31-.44,12.46-.02.66.76.75,1.27.7.46-.05,1.61-.39,1.64-1.03.15-4.15.29-8.31.44-12.46.02-.66-.76-.75-1.27-.7-.46.05-1.61.39-1.64,1.03h0Z"/>
    <path class="cls-1" d="M28.48,263.02c-.45,3.64.04,7.35,1.46,10.74.25.59,1.15.5,1.65.37.36-.1,1.49-.57,1.25-1.15-1.37-3.25-1.89-6.8-1.46-10.31.15-1.19-2.78-.68-2.9.35h0Z"/>
    <path class="cls-1" d="M35.96,268.51l3.57,3.83c.48.51,1.37.48,1.96.18.29-.15.62-.35.75-.66.1-.24.15-.55-.05-.76l-3.57-3.83c-.48-.51-1.37-.48-1.96-.18-.29.15-.62.35-.75.66-.1.24-.15.55.05.76h0Z"/>
    <path class="cls-1" d="M47.63,269.67c1.65,1.86,3.57,3.48,5.68,4.79.59.36,1.54.17,2.07-.22.44-.33.81-.95.2-1.33-.5-.31-1-.64-1.48-.99-.23-.17-.46-.34-.69-.52-.11-.09-.23-.18-.34-.27-.06-.05-.12-.1-.19-.15-.14-.11.18.15-.06-.05-.9-.77-1.75-1.6-2.53-2.48-.45-.51-1.4-.4-1.94-.13-.42.2-1.2.8-.73,1.34h0Z"/>
  </g>
</svg>