<?xml version="1.0" encoding="utf-8"?>
<svg version="1.1" id="Layer_1" x="0px" y="0px" width="100%" viewBox="213.913 294.136 1079.446 253.207" enable-background="new 0 0 1467 748" xmlns="http://www.w3.org/2000/svg">
  <defs/>
  <path fill="#765A48" opacity="1.000000" stroke="none" d="M 1283.154 313.046 C 1280.564 316.653 1278.65 321.005 1275.257 323.727 C 1265.494 331.562 1255.721 339.645 1244.832 345.907 C 1235.013 351.552 1223.672 354.841 1213.079 359.331 C 1207.871 361.537 1202.573 363.713 1197.769 366.578 C 1162.665 387.489 1125.907 404.881 1086.005 416.457 C 1043.357 428.829 1000.822 441.64 958.684 455.462 C 913.199 470.384 868.189 486.595 823.068 502.489 C 814.384 505.547 805.817 509.196 797.794 513.547 C 786.932 519.44 775.331 522.201 763.074 522.832 C 751.776 523.414 741.648 526.832 732.241 532.543 C 721.808 538.874 710.869 538.212 699.857 534.131 C 700.397 532.109 701.177 530.41 701.116 528.74 C 701.078 527.669 699.304 526.693 699.159 525.575 C 697.972 516.341 696.893 507.094 695.966 497.835 C 695.321 491.381 695.436 484.835 694.392 478.449 C 691.768 462.423 688.633 446.471 685.798 430.475 C 684.335 422.228 683.137 413.94 681.712 405.687 C 680.237 397.156 677.232 388.741 680.106 379.863 C 681.297 379.541 682.087 379.245 682.909 379.067 C 717.09 371.742 751.217 364.185 785.492 357.27 C 794.575 355.438 803.698 350.92 813.466 354.926 C 814.019 355.152 814.801 354.898 815.476 354.853 C 838.672 353.321 861.869 351.746 885.071 350.273 C 893.991 349.707 902.949 349.582 911.856 348.871 C 923.767 347.918 935.632 346.489 947.536 345.451 C 956.934 344.633 966.367 344.163 975.774 343.416 C 994.741 341.91 1013.697 340.281 1032.665 338.78 C 1042.577 337.997 1052.511 337.454 1062.422 336.676 C 1076.857 335.543 1091.274 334.217 1105.71 333.123 C 1116.468 332.306 1127.251 331.794 1138.011 331.022 C 1154.475 329.841 1170.937 328.582 1187.395 327.299 C 1197.97 326.476 1208.532 325.46 1219.112 324.712 C 1226.171 324.213 1233.254 324.006 1240.328 323.727 C 1244.64 323.558 1249.201 324.305 1253.22 323.221 C 1260.95 321.133 1268.366 318.022 1275.926 315.371 C 1278.311 314.535 1280.743 313.818 1283.154 313.046 Z" style=""/>
  <path fill="#8A6049" opacity="1.000000" stroke="none" d="M 684.185 380.968 C 681.762 389.81 684.688 398.265 686.124 406.838 C 687.513 415.132 688.681 423.461 690.105 431.749 C 692.866 447.824 695.921 463.854 698.475 479.959 C 699.493 486.377 699.38 492.956 700.009 499.441 C 700.911 508.746 701.962 518.039 703.119 527.318 C 703.259 528.441 704.987 529.422 705.024 530.5 C 705.083 532.178 704.324 533.885 703.481 535.686 C 694.984 531.544 686.699 527.641 678.898 522.977 C 662.519 513.183 646.595 502.664 630.105 493.055 C 615.951 484.807 600.911 482.96 584.594 487.669 C 568.454 492.328 553.344 487.429 539.356 479.316 C 524.814 470.883 510.414 462.219 496.003 453.576 C 484.557 446.712 472.888 443.736 459.433 448.455 C 450.92 451.442 442.724 447.995 435.967 442.695 C 424.967 434.068 414.057 425.291 403.656 416 C 387.214 401.311 367.979 393.892 345.792 394.224 C 327.623 394.497 310.09 391.217 292.857 386.329 C 284.041 383.828 276.021 379.773 269.546 372.696 C 257.692 359.739 246.599 346.384 239.075 330.373 C 246.479 333.257 253.552 336.636 260.833 339.522 C 263.387 340.534 266.454 340.639 269.281 340.612 C 273.366 340.575 277.46 339.647 281.524 339.791 C 293.163 340.203 304.823 341.805 316.409 341.355 C 328.17 340.898 338.886 343.711 349.465 347.735 C 359.085 351.393 368.834 353.446 379.246 353.105 C 387.372 352.839 395.626 352.766 403.65 353.833 C 420.586 356.087 437.36 358.755 454.498 355.167 C 460.482 353.915 466.987 352.997 472.921 353.926 C 487.862 356.267 502.717 358.826 517.92 357.822 C 523.298 357.466 528.634 356.558 534.004 356.05 C 538.226 355.65 542.627 354.631 546.676 355.344 C 567.149 358.949 587.6 362.732 607.922 367.055 C 620.38 369.704 632.523 373.725 644.939 376.595 C 656.164 379.19 667.24 383.605 679.617 380.86 C 681.416 380.913 682.8 380.94 684.185 380.968 Z" style=""/>
  <path fill="#A6A58D" opacity="1.000000" stroke="none" d="M 684.73 382.943 C 672.618 385.828 661.404 381.229 650.038 378.526 C 637.467 375.536 625.173 371.347 612.559 368.587 C 591.982 364.084 571.275 360.143 550.547 356.387 C 546.447 355.644 541.99 356.706 537.717 357.122 C 532.279 357.652 526.876 358.598 521.431 358.968 C 506.037 360.014 490.997 357.348 475.869 354.91 C 469.861 353.942 463.275 354.898 457.216 356.203 C 439.864 359.94 422.88 357.161 405.732 354.813 C 397.608 353.701 389.25 353.777 381.023 354.054 C 370.48 354.41 360.61 352.271 350.87 348.46 C 340.158 344.268 329.308 341.338 317.4 341.814 C 305.669 342.282 293.863 340.614 282.079 340.184 C 277.964 340.034 273.819 341.001 269.683 341.04 C 266.82 341.068 263.715 340.958 261.129 339.904 C 253.757 336.898 246.596 333.377 238.962 330.025 C 233.992 323.721 229.413 317.452 224.048 310.106 C 228.748 309.751 232.269 309.264 235.792 309.251 C 288.864 309.062 341.937 308.996 395.01 308.777 C 462.758 308.498 530.506 308.126 598.254 307.757 C 638.13 307.54 678.006 307.252 718.336 307.452 C 717.11 311.296 715.505 314.725 713.737 318.068 C 705.021 334.554 696.336 351.058 687.471 367.465 C 684.799 372.409 682.558 377.235 684.73 382.943 Z" style=""/>
  <path fill="#A1A183" opacity="1.000000" stroke="none" d="M 681.92 382.969 C 679.322 377.235 681.569 372.409 684.247 367.465 C 693.135 351.058 701.841 334.554 710.58 318.068 C 712.352 314.725 713.961 311.296 715.653 307.548 C 731.314 307.083 746.968 306.94 762.622 306.885 C 780.115 306.823 797.608 306.842 815.811 307.171 C 818.387 307.313 820.255 307.11 822.122 306.906 C 824.809 306.865 827.496 306.824 830.911 307.152 C 836.171 307.302 840.704 307.081 845.237 306.86 C 848.078 306.818 850.919 306.747 853.76 306.736 C 938.207 306.41 1022.655 306.118 1107.102 305.76 C 1164.957 305.516 1222.812 305.181 1280.668 304.889 C 1283.267 304.876 1285.867 304.887 1289.193 304.887 C 1287.458 307.839 1286.019 310.285 1284.135 312.632 C 1283.455 312.717 1283.221 312.901 1282.988 313.085 C 1282.988 313.085 1283.042 313.005 1283.085 313.026 C 1280.746 313.854 1278.342 314.606 1275.984 315.481 C 1268.509 318.255 1261.177 321.513 1253.534 323.698 C 1249.563 324.833 1245.053 324.05 1240.79 324.228 C 1233.796 324.52 1226.794 324.737 1219.816 325.259 C 1209.355 326.042 1198.915 327.107 1188.459 327.969 C 1172.188 329.31 1155.915 330.629 1139.636 331.865 C 1128.998 332.673 1118.338 333.21 1107.704 334.065 C 1093.431 335.211 1079.178 336.598 1064.908 337.784 C 1055.108 338.599 1045.288 339.168 1035.49 339.988 C 1016.737 341.558 997.996 343.264 979.244 344.841 C 969.944 345.623 960.619 346.114 951.328 346.971 C 939.56 348.058 927.828 349.553 916.054 350.55 C 907.249 351.296 898.393 351.426 889.573 352.019 C 866.635 353.562 843.704 355.21 820.769 356.814 C 820.103 356.861 819.33 357.128 818.782 356.891 C 809.126 352.696 800.107 357.427 791.127 359.345 C 757.242 366.583 723.503 374.495 689.711 382.165 C 688.9 382.35 688.117 382.661 686.939 382.997 C 685.152 383.052 683.746 383.024 681.92 382.969 Z" style=""/>
  <path fill="#A6A58D" opacity="1.000000" stroke="none" d="&#10;M846.710693,306.647308 &#10;&#9;C842.543762,307.080963 838.029419,307.301514 833.233643,307.205536 &#10;&#9;C837.422485,306.737427 841.892883,306.585815 846.710693,306.647308 &#10;z"/>
  <path fill="#A6A58D" opacity="1.000000" stroke="none" d="&#10;M823.745239,306.706757 &#10;&#9;C822.178101,307.109650 820.318542,307.313263 818.216736,307.228394 &#10;&#9;C819.800598,306.795746 821.626709,306.651611 823.745239,306.706757 &#10;z"/>
  <path fill="#765A48" opacity="1.000000" stroke="none" d="&#10;M1283.246338,313.066040 &#10;&#9;C1283.245728,312.900696 1283.478394,312.716797 1283.810425,312.698059 &#10;&#9;C1283.909790,312.863251 1283.479614,313.047455 1283.246338,313.066040 &#10;z"/>
</svg>